grf
version=1
nRows=14
nColumns=73
inDegrees=yes
endheader
time	ground_force_1_vx	ground_force_1_vy	ground_force_1_vz	ground_force_1_px	ground_force_1_py	ground_force_1_pz	ground_moment_1_mx	ground_moment_1_my	ground_moment_1_mz	ground_force_2_vx	ground_force_2_vy	ground_force_2_vz	ground_force_2_px	ground_force_2_py	ground_force_2_pz	ground_moment_2_mx	ground_moment_2_my	ground_moment_2_mz	ground_force_3_vx	ground_force_3_vy	ground_force_3_vz	ground_force_3_px	ground_force_3_py	ground_force_3_pz	ground_moment_3_mx	ground_moment_3_my	ground_moment_3_mz	ground_force_4_vx	ground_force_4_vy	ground_force_4_vz	ground_force_4_px	ground_force_4_py	ground_force_4_pz	ground_moment_4_mx	ground_moment_4_my	ground_moment_4_mz	ground_force_5_vx	ground_force_5_vy	ground_force_5_vz	ground_force_5_px	ground_force_5_py	ground_force_5_pz	ground_moment_5_mx	ground_moment_5_my	ground_moment_5_mz	ground_force_6_vx	ground_force_6_vy	ground_force_6_vz	ground_force_6_px	ground_force_6_py	ground_force_6_pz	ground_moment_6_mx	ground_moment_6_my	ground_moment_6_mz	ground_force_7_vx	ground_force_7_vy	ground_force_7_vz	ground_force_7_px	ground_force_7_py	ground_force_7_pz	ground_moment_7_mx	ground_moment_7_my	ground_moment_7_mz	ground_force_8_vx	ground_force_8_vy	ground_force_8_vz	ground_force_8_px	ground_force_8_py	ground_force_8_pz	ground_moment_8_mx	ground_moment_8_my	ground_moment_8_mz
0.970000	-75.188082	530.254619	2.580632	0.598866	0.000000	0.326802	-0.000000	2.297188	-0.000000	0.000000	0.000000	0.000000	0.000000	0.000000	0.000000	0.000000	0.000000	0.000000	-74.698171	529.851630	2.320424	0.602879	0.000000	0.329944	-0.000000	2.432770	-0.000000	0.000000	0.000000	0.000000	0.000000	0.000000	0.000000	0.000000	0.000000	0.000000	-76.961084	529.057452	2.438652	0.603575	0.000000	0.327607	-0.000000	2.436296	-0.000000	0.000000	0.000000	0.000000	0.000000	0.000000	0.000000	0.000000	0.000000	0.000000	-77.088466	526.539659	2.045144	0.599749	0.000000	0.327499	-0.000000	2.180212	-0.000000	0.000000	0.000000	0.000000	0.000000	0.000000	0.000000	0.000000	0.000000	0.000000
0.971000	-74.514883	529.463168	2.534657	0.597579	0.000000	0.326861	-0.000000	2.288759	-0.000000	0.000000	0.000000	0.000000	0.000000	0.000000	0.000000	0.000000	0.000000	0.000000	-74.002858	529.042745	2.293999	0.601578	0.000000	0.329993	-0.000000	2.439528	-0.000000	0.000000	0.000000	0.000000	0.000000	0.000000	0.000000	0.000000	0.000000	0.000000	-76.255931	528.289636	2.396923	0.602285	0.000000	0.327654	-0.000000	2.441576	-0.000000	0.000000	0.000000	0.000000	0.000000	0.000000	0.000000	0.000000	0.000000	0.000000	-76.434982	525.779548	2.032225	0.598425	0.000000	0.327551	-0.000000	2.174429	-0.000000	0.000000	0.000000	0.000000	0.000000	0.000000	0.000000	0.000000	0.000000	0.000000
0.972000	-73.832199	528.669236	2.497552	0.596273	0.000000	0.326920	-0.000000	2.278917	-0.000000	0.000000	0.000000	0.000000	0.000000	0.000000	0.000000	0.000000	0.000000	0.000000	-73.302382	528.213910	2.276243	0.600274	0.000000	0.330039	-0.000000	2.444209	-0.000000	0.000000	0.000000	0.000000	0.000000	0.000000	0.000000	0.000000	0.000000	0.000000	-75.545992	527.499540	2.356670	0.600987	0.000000	0.327694	-0.000000	2.446115	-0.000000	0.000000	0.000000	0.000000	0.000000	0.000000	0.000000	0.000000	0.000000	0.000000	-75.773607	525.011271	2.020731	0.597084	0.000000	0.327601	-0.000000	2.166209	-0.000000	0.000000	0.000000	0.000000	0.000000	0.000000	0.000000	0.000000	0.000000	0.000000
0.973000	-73.141428	527.873467	2.472623	0.594946	0.000000	0.326981	-0.000000	2.268311	-0.000000	0.000000	0.000000	0.000000	0.000000	0.000000	0.000000	0.000000	0.000000	0.000000	-72.597449	527.365354	2.268625	0.598969	0.000000	0.330084	-0.000000	2.446453	-0.000000	0.000000	0.000000	0.000000	0.000000	0.000000	0.000000	0.000000	0.000000	0.000000	-74.830441	526.685939	2.320609	0.599684	0.000000	0.327729	-0.000000	2.449091	-0.000000	0.000000	0.000000	0.000000	0.000000	0.000000	0.000000	0.000000	0.000000	0.000000	-75.102301	524.233347	2.013274	0.595728	0.000000	0.327650	-0.000000	2.155411	-0.000000	0.000000	0.000000	0.000000	0.000000	0.000000	0.000000	0.000000	0.000000	0.000000
0.974000	-72.443864	527.076456	2.463025	0.593598	0.000000	0.327044	-0.000000	2.257726	-0.000000	0.000000	0.000000	0.000000	0.000000	0.000000	0.000000	0.000000	0.000000	0.000000	-71.888961	526.498168	2.272435	0.597662	0.000000	0.330130	-0.000000	2.446219	-0.000000	0.000000	0.000000	0.000000	0.000000	0.000000	0.000000	0.000000	0.000000	0.000000	-74.109242	525.848373	2.290933	0.598375	0.000000	0.327758	-0.000000	2.449795	-0.000000	0.000000	0.000000	0.000000	0.000000	0.000000	0.000000	0.000000	0.000000	0.000000	-74.420649	523.444965	2.012377	0.594358	0.000000	0.327700	-0.000000	2.142045	-0.000000	0.000000	0.000000	0.000000	0.000000	0.000000	0.000000	0.000000	0.000000	0.000000
0.975000	-71.739751	526.277635	2.471754	0.592231	0.000000	0.327110	-0.000000	2.247948	-0.000000	0.000000	0.000000	0.000000	0.000000	0.000000	0.000000	0.000000	0.000000	0.000000	-71.177451	525.613583	2.289133	0.596354	0.000000	0.330176	-0.000000	2.443559	-0.000000	0.000000	0.000000	0.000000	0.000000	0.000000	0.000000	0.000000	0.000000	0.000000	-73.383307	524.987601	2.269329	0.597062	0.000000	0.327785	-0.000000	2.447849	-0.000000	0.000000	0.000000	0.000000	0.000000	0.000000	0.000000	0.000000	0.000000	0.000000	-73.729788	522.646227	2.020543	0.592977	0.000000	0.327752	-0.000000	2.126492	-0.000000	0.000000	0.000000	0.000000	0.000000	0.000000	0.000000	0.000000	0.000000	0.000000
0.976000	-71.028388	525.474759	2.501348	0.590846	0.000000	0.327178	-0.000000	2.239607	-0.000000	0.000000	0.000000	0.000000	0.000000	0.000000	0.000000	0.000000	0.000000	0.000000	-70.462891	524.712412	2.320277	0.595044	0.000000	0.330221	-0.000000	2.438385	-0.000000	0.000000	0.000000	0.000000	0.000000	0.000000	0.000000	0.000000	0.000000	0.000000	-72.653998	524.105237	2.257227	0.595747	0.000000	0.327812	-0.000000	2.443243	-0.000000	0.000000	0.000000	0.000000	0.000000	0.000000	0.000000	0.000000	0.000000	0.000000	-73.031197	521.837556	2.040188	0.591587	0.000000	0.327804	-0.000000	2.109560	-0.000000	0.000000	0.000000	0.000000	0.000000	0.000000	0.000000	0.000000	0.000000	0.000000
0.977000	-70.309224	524.664366	2.553250	0.589447	0.000000	0.327246	-0.000000	2.233029	-0.000000	0.000000	0.000000	0.000000	0.000000	0.000000	0.000000	0.000000	0.000000	0.000000	-69.745132	523.794931	2.367008	0.593732	0.000000	0.330265	-0.000000	2.430444	-0.000000	0.000000	0.000000	0.000000	0.000000	0.000000	0.000000	0.000000	0.000000	0.000000	-71.922438	523.203116	2.256139	0.594428	0.000000	0.327838	-0.000000	2.436172	-0.000000	0.000000	0.000000	0.000000	0.000000	0.000000	0.000000	0.000000	0.000000	0.000000	-72.325468	521.018663	2.073564	0.590193	0.000000	0.327855	-0.000000	2.092300	0.000000	0.000000	0.000000	0.000000	0.000000	0.000000	0.000000	0.000000	0.000000	0.000000
0.978000	-69.583287	523.842797	2.627438	0.588038	0.000000	0.327312	-0.000000	2.228282	-0.000000	0.000000	0.000000	0.000000	0.000000	0.000000	0.000000	0.000000	0.000000	0.000000	-69.024669	522.861187	2.429521	0.592418	0.000000	0.330306	-0.000000	2.419571	-0.000000	0.000000	0.000000	0.000000	0.000000	0.000000	0.000000	0.000000	0.000000	0.000000	-71.189088	522.282815	2.267750	0.593107	0.000000	0.327865	-0.000000	2.426768	0.000000	0.000000	0.000000	0.000000	0.000000	0.000000	0.000000	0.000000	0.000000	0.000000	-71.612024	520.187943	2.122654	0.588799	0.000000	0.327904	-0.000000	2.075724	0.000000	0.000000	0.000000	0.000000	0.000000	0.000000	0.000000	0.000000	0.000000	0.000000
0.979000	-68.853846	523.007197	2.722590	0.586623	0.000000	0.327377	-0.000000	2.225339	-0.000000	0.000000	0.000000	0.000000	0.000000	0.000000	0.000000	0.000000	0.000000	0.000000	-68.303121	521.911553	2.506956	0.591102	0.000000	0.330346	-0.000000	2.406041	-0.000000	0.000000	0.000000	0.000000	0.000000	0.000000	0.000000	0.000000	0.000000	0.000000	-70.453988	521.345452	2.293540	0.591784	0.000000	0.327892	-0.000000	2.414967	0.000000	1.450056	4.798114	1.846665	0.099513	0.000000	0.490127	0.000000	-0.626734	0.000000	-70.889981	519.342813	2.188715	0.587406	0.000000	0.327952	-0.000000	2.060540	0.000000	0.000000	0.000000	0.000000	0.000000	0.000000	0.000000	0.000000	0.000000	0.000000
0.980000	-68.125798	522.156097	2.836554	0.585204	0.000000	0.327441	-0.000000	2.224161	-0.000000	0.000000	0.000000	0.000000	0.000000	0.000000	0.000000	0.000000	0.000000	0.000000	-67.583051	520.947187	2.597804	0.589785	0.000000	0.330384	-0.000000	2.390740	-0.000000	0.000000	0.000000	0.000000	0.000000	0.000000	0.000000	0.000000	0.000000	0.000000	-69.717532	520.391830	2.334242	0.590457	0.000000	0.327917	-0.000000	2.400640	0.000000	0.000000	0.000000	0.000000	0.000000	0.000000	0.000000	0.000000	0.000000	0.000000	-70.159609	518.480635	2.271796	0.586018	0.000000	0.327999	-0.000000	2.047094	0.000000	0.000000	0.000000	0.000000	0.000000	0.000000	0.000000	0.000000	0.000000	0.000000
0.981000	-67.404301	521.289196	2.966833	0.583783	0.000000	0.327505	-0.000000	2.224609	-0.000000	0.000000	0.000000	0.000000	0.000000	0.000000	0.000000	0.000000	0.000000	0.000000	-66.867264	519.969929	2.700548	0.588466	0.000000	0.330422	-0.000000	2.374949	-0.000000	0.000000	0.000000	0.000000	0.000000	0.000000	0.000000	0.000000	0.000000	0.000000	-68.981130	519.422920	2.389644	0.589128	0.000000	0.327941	-0.000000	2.383934	0.000000	1.119057	4.582478	1.903356	0.097760	0.000000	0.491180	0.000000	-0.650603	0.000000	-69.423251	517.599699	2.370751	0.584636	0.000000	0.328045	-0.000000	2.035551	0.000000	0.000000	0.000000	0.000000	0.000000	0.000000	0.000000	0.000000	0.000000	0.000000
0.982000	-66.693447	520.406447	3.110786	0.582361	0.000000	0.327567	-0.000000	2.226281	-0.000000	0.000000	0.000000	0.000000	0.000000	0.000000	0.000000	0.000000	0.000000	0.000000	-66.157955	518.981658	2.814086	0.587146	0.000000	0.330461	-0.000000	2.359855	-0.000000	0.000000	0.000000	0.000000	0.000000	0.000000	0.000000	0.000000	0.000000	0.000000	-68.247268	518.440436	2.458810	0.587798	0.000000	0.327966	-0.000000	2.365552	0.000000	0.000000	0.000000	0.000000	0.000000	0.000000	0.000000	0.000000	0.000000	0.000000	-68.685044	516.699946	2.483558	0.583260	0.000000	0.328091	-0.000000	2.026094	0.000000	0.000000	0.000000	0.000000	0.000000	0.000000	0.000000	0.000000	0.000000	0.000000
0.983000	-65.995571	519.507207	3.265442	0.580942	0.000000	0.327626	-0.000000	2.228326	-0.000000	0.000000	0.000000	0.000000	0.000000	0.000000	0.000000	0.000000	0.000000	0.000000	-65.456162	517.983686	2.937663	0.585825	0.000000	0.330498	-0.000000	2.346092	-0.000000	0.000000	0.000000	0.000000	0.000000	0.000000	0.000000	0.000000	0.000000	0.000000	-67.518922	517.446948	2.540577	0.586467	0.000000	0.327992	-0.000000	2.346714	0.000000	0.000000	0.000000	0.000000	0.000000	0.000000	0.000000	0.000000	0.000000	0.000000	-67.949802	515.782869	2.607727	0.581892	0.000000	0.328136	-0.000000	2.018984	0.000000	0.000000	0.000000	0.000000	0.000000	0.000000	0.000000	0.000000	0.000000	0.000000
